<svg xmlns="http://www.w3.org/2000/svg" viewBox="0 0 181.03 147.72"><defs><linearGradient id="c" y2="552.07" gradientUnits="userSpaceOnUse" x2="209.58" y1="587.36" x1="174.29"><stop stop-color="#003296" stop-opacity=".918" offset="0"/><stop stop-color="#003296" stop-opacity="0" offset="1"/></linearGradient><linearGradient id="b" y2="637.77" gradientUnits="userSpaceOnUse" x2="118.9" y1="654.57" x1="102.91"><stop stop-color="#003296" offset="0"/><stop stop-color="#003296" stop-opacity="0" offset="1"/></linearGradient><filter id="d" height="1.5" width="1.5" y="-.25" x="-.25" color-interpolation-filters="sRGB"><feGaussianBlur result="blur" stdDeviation="4.3" in="SourceAlpha"/><feColorMatrix values="1 0 0 0 0 0 1 0 0 0 0 0 1 0 0 0 0 0 0.638000 0" result="bluralpha"/><feOffset result="offsetBlur" in="bluralpha" dx="5.9" dy="5.9"/><feMerge><feMergeNode in="offsetBlur"/><feMergeNode in="SourceGraphic"/></feMerge></filter><filter id="a" height="1.5" width="1.5" y="-.25" x="-.25" color-interpolation-filters="sRGB"><feGaussianBlur result="blur" stdDeviation="4.3" in="SourceAlpha"/><feColorMatrix values="1 0 0 0 0 0 1 0 0 0 0 0 1 0 0 0 0 0 0.638000 0" result="bluralpha"/><feOffset result="offsetBlur" in="bluralpha" dx="5.9" dy="5.9"/><feMerge><feMergeNode in="offsetBlur"/><feMergeNode in="SourceGraphic"/></feMerge></filter></defs><path d="M141.43 640.22c0 10.257-9.114 18.571-20.357 18.571s-20.357-8.315-20.357-18.571c0-10.257 9.114-18.571 20.357-18.571s20.357 8.315 20.357 18.571z" transform="matrix(.97957 0 0 .93212 -74.436 -479.484)" filter="url(#a)" stroke="#003296" stroke-width="7.23" fill="url(#b)"/><path d="M180 582.36l115-1.429 33.571-50c-148.57-12.85-149.28-12.85-149.28-12.85l.71 64.28z" stroke="#003296" stroke-width="14" fill="url(#c)" transform="translate(-154.54 -494.73)"/><path d="M141.43 640.22c0 10.257-9.114 18.571-20.357 18.571s-20.357-8.315-20.357-18.571c0-10.257 9.114-18.571 20.357-18.571s20.357 8.315 20.357 18.571z" transform="matrix(.97957 0 0 .93212 1.15 -479.484)" filter="url(#d)" stroke="#003296" stroke-width="7.23" fill="url(#b)"/><path stroke-linejoin="round" d="M24.66 19V6.993H6.996" stroke="#003296" stroke-linecap="round" stroke-width="14" fill="none"/><path d="M165.59 52.9L30.2 46.48M147.45 69.47l-118.48-.8" stroke="#003196" stroke-width="14" fill="none"/><path d="M50.01 81.19V27.325M75.06 83.31V29.445M100.11 82.56V28.695M125.16 79.81V25.945M150.21 67.12V27.637" stroke="#003296" stroke-width="14" fill="none"/></svg>