<svg xmlns="http://www.w3.org/2000/svg" viewBox="0 0 512 512"><path d="M461.256 0h-55.054a8.28 8.28 0 00-5.841 2.417l-21.686 21.686-21.686-21.686A8.28 8.28 0 00351.148 0h-55.054a8.258 8.258 0 00-8.258 8.258v467.957c0 4.558 3.7 8.258 8.258 8.258h55.054c2.191 0 4.289-.87 5.841-2.417l21.686-21.686 21.686 21.686a8.282 8.282 0 005.841 2.417h55.054c4.558 0 8.258-3.7 8.258-8.258V8.258c0-4.564-3.7-8.258-8.258-8.258zm-8.258 467.957h-43.377l-25.104-25.11a8.254 8.254 0 00-11.677 0l-25.11 25.11h-43.377V16.516h43.377l25.104 25.11a8.254 8.254 0 0011.677 0l25.11-25.11h43.377v451.441z"/><path d="M494.624 497.901l-27.527-27.527a8.282 8.282 0 00-5.841-2.417H296.094a8.28 8.28 0 00-5.841 2.417l-27.527 27.527A8.261 8.261 0 00268.567 512h220.215a8.256 8.256 0 007.63-5.098 8.248 8.248 0 00-1.788-9.001zm-206.121-2.417l11.011-11.011h158.324l11.011 11.011H288.503zM378.675 27.527a8.258 8.258 0 00-8.258 8.258v412.903c0 4.558 3.7 8.258 8.258 8.258s8.258-3.7 8.258-8.258V35.785a8.257 8.257 0 00-8.258-8.258zM433.729 439.88a8.262 8.262 0 00-8.258 8.258v.551c0 4.558 3.7 7.983 8.258 7.983s8.258-3.975 8.258-8.533-3.7-8.259-8.258-8.259zM185.987 110.108c-34.91 0-63.312 28.402-63.312 63.312v27.527a8.254 8.254 0 008.258 8.258 8.254 8.254 0 008.258-8.258V173.42c0-25.804 20.992-46.796 46.796-46.796s46.796 20.992 46.796 46.796a8.254 8.254 0 008.258 8.258 8.254 8.254 0 008.258-8.258c0-34.91-28.403-63.312-63.312-63.312zM241.041 330.323a8.258 8.258 0 00-8.258 8.258c0 25.804-20.992 46.796-46.796 46.796s-46.796-20.992-46.796-46.796v-27.527c0-4.558-3.694-8.258-8.258-8.258s-8.258 3.7-8.258 8.258v27.527c0 34.91 28.402 63.312 63.312 63.312s63.312-28.402 63.312-63.312a8.257 8.257 0 00-8.258-8.258z"/><path d="M103.406 165.161c-19.731 0-35.785 16.054-35.785 35.785s16.054 35.785 35.785 35.785 35.785-16.054 35.785-35.785-16.053-35.785-35.785-35.785zm0 55.054c-10.625 0-19.269-8.643-19.269-19.269s8.643-19.269 19.269-19.269 19.269 8.643 19.269 19.269-8.643 19.269-19.269 19.269zM103.406 275.269c-19.731 0-35.785 16.054-35.785 35.785s16.054 35.785 35.785 35.785 35.785-16.054 35.785-35.785-16.053-35.785-35.785-35.785zm0 55.054c-10.625 0-19.269-8.643-19.269-19.269s8.643-19.269 19.269-19.269 19.269 8.643 19.269 19.269-8.643 19.269-19.269 19.269zM241.041 165.161a8.254 8.254 0 00-8.258 8.258V338.58a8.258 8.258 0 008.258 8.258c4.564 0 8.258-3.7 8.258-8.258V173.419a8.254 8.254 0 00-8.258-8.258z"/><path d="M197.961 110.741L94.46 67.799a6.503 6.503 0 00-.54-.204c-.116-.039-1.58-.54-4.338-1.63-25.154-8.676-50.749.171-65.206 22.523-12.2 18.867-14.953 48.062 6.397 70.761 17.76 18.905 40.184 31.342 41.131 31.865a8.215 8.215 0 003.969 1.024 8.287 8.287 0 007.251-4.278c2.197-3.991.738-9.018-3.259-11.214-.209-.116-21.064-11.677-37.051-28.7-16.274-17.309-12.629-38.009-4.564-50.484 7.741-11.969 24.433-23.31 45.579-16.021a104.31 104.31 0 004.553 1.718l103.253 42.837c4.206 1.745 9.045-.253 10.791-4.465s-.253-9.045-4.465-10.79zM202.426 390.474c-1.745-4.212-6.584-6.216-10.791-4.465L88.377 428.852c-.617.209-2.153.76-4.173 1.569-21.548 7.416-38.224-3.914-45.959-15.878-8.065-12.475-11.71-33.175 4.569-50.49 15.916-16.946 36.842-28.589 37.051-28.705 3.991-2.197 5.445-7.218 3.248-11.214a8.264 8.264 0 00-11.214-3.254c-.947.523-23.37 12.96-41.125 31.86-21.35 22.71-18.597 51.905-6.403 70.766 10.741 16.604 27.62 25.754 46.052 25.754 6.386 0 12.96-1.101 19.528-3.358 2.395-.952 3.87-1.453 3.98-1.492.176-.061.358-.127.529-.198l103.501-42.942a8.254 8.254 0 004.465-10.796zM103.406 220.215a8.254 8.254 0 00-8.258 8.258v55.054c0 4.558 3.694 8.258 8.258 8.258s8.258-3.7 8.258-8.258v-55.054a8.254 8.254 0 00-8.258-8.258zM213.514 165.161H158.46a8.254 8.254 0 00-8.258 8.258 8.254 8.254 0 008.258 8.258h55.054c4.564 0 8.258-3.694 8.258-8.258s-3.694-8.258-8.258-8.258z"/><path d="M185.987 137.634a8.254 8.254 0 00-8.258 8.258v55.054a8.254 8.254 0 008.258 8.258 8.254 8.254 0 008.258-8.258v-55.054a8.254 8.254 0 00-8.258-8.258zM219.366 332.739c-3.083-3.083-8.643-3.083-11.671 0a8.358 8.358 0 00-2.422 5.841c0 2.202.881 4.3 2.422 5.836a8.253 8.253 0 005.836 2.422 8.35 8.35 0 005.836-2.422 8.258 8.258 0 002.422-5.836 8.359 8.359 0 00-2.423-5.841zM164.312 332.739c-3.083-3.083-8.643-3.083-11.726 0-1.487 1.547-2.367 3.689-2.367 5.841 0 2.147.881 4.3 2.422 5.836a8.252 8.252 0 005.836 2.422 8.35 8.35 0 005.836-2.422 8.258 8.258 0 002.422-5.836 8.253 8.253 0 00-2.423-5.841zM191.839 305.213c-3.083-3.083-8.588-3.083-11.671 0a8.358 8.358 0 00-2.422 5.841c0 2.147.881 4.3 2.422 5.836a8.25 8.25 0 005.836 2.422c2.147 0 4.294-.881 5.836-2.422s2.422-3.689 2.422-5.836a8.35 8.35 0 00-2.423-5.841zM191.839 360.266c-3.083-3.083-8.643-3.083-11.671 0a8.27 8.27 0 00-2.422 5.841c0 2.202.881 4.3 2.422 5.836a8.253 8.253 0 005.836 2.422 8.35 8.35 0 005.836-2.422 8.346 8.346 0 002.422-5.836 8.257 8.257 0 00-2.423-5.841z"/></svg>