<svg height="512" viewBox="0 0 512.001 512.001" width="512" xmlns="http://www.w3.org/2000/svg"><path d="M397.571 358.412h69.832V216.148c0-49.587-17.169-95.234-45.864-131.328L384 96.079l-5.138 31.415c18.051 24.947 28.709 55.577 28.709 88.654v46.537z" fill="#dc4b4b"/><path d="M44.598 216.148v142.265h69.832l-10.001-95.727v-46.537c0-33.077 10.658-63.708 28.709-88.654L117.334 96.08 90.462 84.82c-28.695 36.093-45.864 81.741-45.864 131.328z" fill="#0ed678"/><path d="M256 4.746l-10.667 37.999L256 64.577c50.5 0 95.303 24.83 122.862 62.917l42.675-42.674C382.778 36.065 322.981 4.746 256 4.746z" fill="#fdae02"/><path d="M256 4.746c-66.981 0-126.777 31.318-165.538 80.073l42.675 42.675C160.697 89.407 205.5 64.577 256 64.577z" fill="#fdcb02"/><g><path d="M89.434 295.536C40.12 295.536 0 335.656 0 384.97s40.12 89.434 89.434 89.434H128V295.536z" fill="#28485e"/><path d="M115.358 262.685h-10.941v244.57h10.941c38.571 0 69.951-31.38 69.951-69.951V332.636c.001-38.571-31.379-69.951-69.951-69.951z" fill="#ebe1dc"/></g><g><path d="M422.567 295.536c49.313 0 89.434 40.12 89.434 89.434s-40.12 89.434-89.434 89.434H384V295.536z" fill="#1b303e"/><path d="M396.642 262.685h10.941v244.57h-10.941c-38.571 0-69.951-31.38-69.951-69.951V332.636c0-38.571 31.38-69.951 69.951-69.951z" fill="#dcd2cd"/></g></svg>